<svg aria-hidden="true" style="position: absolute; width: 0; height: 0; overflow: hidden;" version="1.1" xmlns="http://www.w3.org/2000/svg" xmlns:xlink="http://www.w3.org/1999/xlink">
<defs>
<symbol id="icon-close" viewBox="0 0 14 14" xmlns="http://www.w3.org/2000/svg">
<path d="M1 1L13 13" stroke="#212121" stroke-width="2"/>
<path d="M1 13L13 0.999999" stroke="#212121" stroke-width="2"/>
</symbol>
<symbol id="icon-burger" viewBox="0 0 24 24" xmlns="http://www.w3.org/2000/svg">
<path d="M3 18H21V16H3V18ZM3 13H21V11H3V13ZM3 6V8H21V6H3Z" fill="#212121"/>
</symbol>
<symbol id="icon-calendar" viewBox="0 0 32 32">
<path d="M10 12h4v4h-4zM16 12h4v4h-4zM22 12h4v4h-4zM4 24h4v4h-4zM10 24h4v4h-4zM16 24h4v4h-4zM10 18h4v4h-4zM16 18h4v4h-4zM22 18h4v4h-4zM4 18h4v4h-4zM26 0v2h-4v-2h-14v2h-4v-2h-4v32h30v-32h-4zM28 30h-26v-22h26v22z"></path>
</symbol>
<symbol id="icon-github" viewBox="0 0 32 32">
<path d="M16 0.395c-8.836 0-16 7.163-16 16 0 7.069 4.585 13.067 10.942 15.182 0.8 0.148 1.094-0.347 1.094-0.77 0-0.381-0.015-1.642-0.022-2.979-4.452 0.968-5.391-1.888-5.391-1.888-0.728-1.849-1.776-2.341-1.776-2.341-1.452-0.993 0.11-0.973 0.11-0.973 1.606 0.113 2.452 1.649 2.452 1.649 1.427 2.446 3.743 1.739 4.656 1.33 0.143-1.034 0.558-1.74 1.016-2.14-3.554-0.404-7.29-1.777-7.29-7.907 0-1.747 0.625-3.174 1.649-4.295-0.166-0.403-0.714-2.030 0.155-4.234 0 0 1.344-0.43 4.401 1.64 1.276-0.355 2.645-0.532 4.005-0.539 1.359 0.006 2.729 0.184 4.008 0.539 3.054-2.070 4.395-1.64 4.395-1.64 0.871 2.204 0.323 3.831 0.157 4.234 1.026 1.12 1.647 2.548 1.647 4.295 0 6.145-3.743 7.498-7.306 7.895 0.574 0.497 1.085 1.47 1.085 2.963 0 2.141-0.019 3.864-0.019 4.391 0 0.426 0.288 0.925 1.099 0.768 6.354-2.118 10.933-8.113 10.933-15.18 0-8.837-7.164-16-16-16z"></path>
</symbol>
<symbol id="icon-linkedin" viewBox="0 0 32 32">
<path d="M29 0h-26c-1.65 0-3 1.35-3 3v26c0 1.65 1.35 3 3 3h26c1.65 0 3-1.35 3-3v-26c0-1.65-1.35-3-3-3zM12 26h-4v-14h4v14zM10 10c-1.106 0-2-0.894-2-2s0.894-2 2-2c1.106 0 2 0.894 2 2s-0.894 2-2 2zM26 26h-4v-8c0-1.106-0.894-2-2-2s-2 0.894-2 2v8h-4v-14h4v2.481c0.825-1.131 2.087-2.481 3.5-2.481 2.488 0 4.5 2.238 4.5 5v9z"></path>
</symbol>
<symbol id="icon-phone" viewBox="0 0 32 32">
<path d="M22 20c-2 2-2 4-4 4s-4-2-6-4-4-4-4-6 2-2 4-4-4-8-6-8-6 6-6 6c0 4 4.109 12.109 8 16s12 8 16 8c0 0 6-4 6-6s-6-8-8-6z"></path>
</symbol>
<symbol id="icon-play" viewBox="0 0 32 32">
<path d="M6 4l20 12-20 12z"></path>
</symbol>
<symbol id="icon-pause" viewBox="0 0 32 32">
<path d="M4 4h10v24h-10zM18 4h10v24h-10z"></path>
</symbol>
<symbol id="icon-stop" viewBox="0 0 32 32">
<path d="M4 4h24v24h-24z"></path>
</symbol>
<symbol id="icon-first" viewBox="0 0 32 32">
<path d="M4 28v-24h4v11l10-10v10l10-10v22l-10-10v10l-10-10v11z"></path>
</symbol>
<symbol id="icon-last" viewBox="0 0 32 32">
<path d="M28 4v24h-4v-11l-10 10v-10l-10 10v-22l10 10v-10l10 10v-11z"></path>
</symbol>
<symbol id="icon-facebook" viewBox="0 0 32 32">
<path d="M29 0h-26c-1.65 0-3 1.35-3 3v26c0 1.65 1.35 3 3 3h13v-14h-4v-4h4v-2c0-3.306 2.694-6 6-6h4v4h-4c-1.1 0-2 0.9-2 2v2h6l-1 4h-5v14h9c1.65 0 3-1.35 3-3v-26c0-1.65-1.35-3-3-3z"></path>
</symbol>
<symbol id="icon-instagram" viewBox="0 0 32 32">
<path d="M16 2.881c4.275 0 4.781 0.019 6.462 0.094 1.563 0.069 2.406 0.331 2.969 0.55 0.744 0.288 1.281 0.638 1.837 1.194 0.563 0.563 0.906 1.094 1.2 1.838 0.219 0.563 0.481 1.412 0.55 2.969 0.075 1.688 0.094 2.194 0.094 6.463s-0.019 4.781-0.094 6.463c-0.069 1.563-0.331 2.406-0.55 2.969-0.288 0.744-0.637 1.281-1.194 1.837-0.563 0.563-1.094 0.906-1.837 1.2-0.563 0.219-1.413 0.481-2.969 0.55-1.688 0.075-2.194 0.094-6.463 0.094s-4.781-0.019-6.463-0.094c-1.563-0.069-2.406-0.331-2.969-0.55-0.744-0.288-1.281-0.637-1.838-1.194-0.563-0.563-0.906-1.094-1.2-1.837-0.219-0.563-0.481-1.413-0.55-2.969-0.075-1.688-0.094-2.194-0.094-6.463s0.019-4.781 0.094-6.463c0.069-1.563 0.331-2.406 0.55-2.969 0.288-0.744 0.638-1.281 1.194-1.838 0.563-0.563 1.094-0.906 1.838-1.2 0.563-0.219 1.412-0.481 2.969-0.55 1.681-0.075 2.188-0.094 6.463-0.094zM16 0c-4.344 0-4.887 0.019-6.594 0.094-1.7 0.075-2.869 0.35-3.881 0.744-1.056 0.412-1.95 0.956-2.837 1.85-0.894 0.888-1.438 1.781-1.85 2.831-0.394 1.019-0.669 2.181-0.744 3.881-0.075 1.713-0.094 2.256-0.094 6.6s0.019 4.887 0.094 6.594c0.075 1.7 0.35 2.869 0.744 3.881 0.413 1.056 0.956 1.95 1.85 2.837 0.887 0.887 1.781 1.438 2.831 1.844 1.019 0.394 2.181 0.669 3.881 0.744 1.706 0.075 2.25 0.094 6.594 0.094s4.888-0.019 6.594-0.094c1.7-0.075 2.869-0.35 3.881-0.744 1.050-0.406 1.944-0.956 2.831-1.844s1.438-1.781 1.844-2.831c0.394-1.019 0.669-2.181 0.744-3.881 0.075-1.706 0.094-2.25 0.094-6.594s-0.019-4.887-0.094-6.594c-0.075-1.7-0.35-2.869-0.744-3.881-0.394-1.063-0.938-1.956-1.831-2.844-0.887-0.887-1.781-1.438-2.831-1.844-1.019-0.394-2.181-0.669-3.881-0.744-1.712-0.081-2.256-0.1-6.6-0.1v0z"></path>
<path d="M16 7.781c-4.537 0-8.219 3.681-8.219 8.219s3.681 8.219 8.219 8.219 8.219-3.681 8.219-8.219c0-4.537-3.681-8.219-8.219-8.219zM16 21.331c-2.944 0-5.331-2.387-5.331-5.331s2.387-5.331 5.331-5.331c2.944 0 5.331 2.387 5.331 5.331s-2.387 5.331-5.331 5.331z"></path>
<path d="M26.462 7.456c0 1.060-0.859 1.919-1.919 1.919s-1.919-0.859-1.919-1.919c0-1.060 0.859-1.919 1.919-1.919s1.919 0.859 1.919 1.919z"></path>
</symbol>
<symbol id="icon-telegram" viewBox="0 0 32 32">
<path d="M16 0c-8.838 0-16 7.162-16 16s7.162 16 16 16 16-7.163 16-16-7.163-16-16-16zM23.863 10.969l-2.625 12.369c-0.181 0.881-0.712 1.087-1.45 0.681l-4-2.956-1.919 1.869c-0.225 0.219-0.4 0.4-0.8 0.4-0.519 0-0.431-0.194-0.606-0.688l-1.363-4.475-3.956-1.231c-0.856-0.262-0.862-0.85 0.194-1.269l15.412-5.95c0.7-0.319 1.381 0.169 1.113 1.25z"></path>
</symbol>
<symbol id="icon-youtube" viewBox="0 0 32 32">
<path d="M31.681 9.6c0 0-0.313-2.206-1.275-3.175-1.219-1.275-2.581-1.281-3.206-1.356-4.475-0.325-11.194-0.325-11.194-0.325h-0.012c0 0-6.719 0-11.194 0.325-0.625 0.075-1.987 0.081-3.206 1.356-0.963 0.969-1.269 3.175-1.269 3.175s-0.319 2.588-0.319 5.181v2.425c0 2.587 0.319 5.181 0.319 5.181s0.313 2.206 1.269 3.175c1.219 1.275 2.819 1.231 3.531 1.369 2.563 0.244 10.881 0.319 10.881 0.319s6.725-0.012 11.2-0.331c0.625-0.075 1.988-0.081 3.206-1.356 0.962-0.969 1.275-3.175 1.275-3.175s0.319-2.587 0.319-5.181v-2.425c-0.006-2.588-0.325-5.181-0.325-5.181zM12.694 20.15v-8.994l8.644 4.513-8.644 4.481z"></path>
</symbol>
<symbol id="icon-mail" viewBox="0 0 32 32">
<path d="M26.666 0h-21.332c-2.934 0-5.334 2.4-5.334 5.333v21.333c0 2.934 2.4 5.334 5.334 5.334h21.332c2.936 0 5.334-2.4 5.334-5.334v-21.333c0-2.934-2.398-5.333-5.334-5.333zM8 8h16c0.286 0 0.563 0.061 0.817 0.177l-8.817 10.286-8.817-10.287c0.254-0.116 0.531-0.177 0.817-0.177zM6 22v-12c0-0.042 0.002-0.084 0.004-0.125l5.864 6.842-5.8 5.8c-0.045-0.167-0.069-0.34-0.069-0.517zM24 24h-16c-0.177 0-0.35-0.024-0.517-0.069l5.691-5.691 2.826 3.297 2.826-3.297 5.691 5.691c-0.167 0.045-0.34 0.069-0.517 0.069zM26 22c0 0.177-0.024 0.35-0.069 0.517l-5.8-5.8 5.864-6.842c0.003 0.041 0.004 0.083 0.004 0.125v12z"></path>
</symbol>
<symbol id="icon-note" viewBox="0 0 430.499 430.499" style="enable-background:new 0 0 430.499 430.499;">
	<path d="M388.241,315.399c6.957,22.525-6.975,50.058-33.963,64.415c-29.737,15.806-63.967,9.587-76.438-13.891
			c-12.483-23.478,1.513-55.324,31.244-71.124c15.179-8.068,31.517-10.367,45.537-7.596l-0.674-246.313L155.534,75.548
			l-0.029,281.981c6.833,22.491-7.099,49.923-34.022,64.227c-29.737,15.8-63.958,9.6-76.438-13.878
			c-12.475-23.489,1.513-55.337,31.25-71.142c15.196-8.08,31.551-10.38,45.592-7.584l0.044-282.505L389.104,0L388.241,315.399z"/>
</symbol>
<symbol id="icon-wave" viewBox="0 0 1440 320">
  <path fill="#fff" fill-opacity="1" d="M0,128L60,112C120,96,240,64,360,74.7C480,85,600,139,720,154.7C840,171,960,149,1080,128C1200,107,1320,85,1380,74.7L1440,64L1440,0L1380,0C1320,0,1200,0,1080,0C960,0,840,0,720,0C600,0,480,0,360,0C240,0,120,0,60,0L0,0Z"></path>
</symbol>
<symbol id="icon-amplifier" viewBox="0 0 32 32">
<path d="M9.573 28.427c0.049 0.049 0.113 0.073 0.177 0.073s0.127-0.024 0.177-0.073c0.098-0.098 0.098-0.256 0-0.354l-6-6c-0.098-0.098-0.256-0.098-0.353 0s-0.098 0.256 0 0.354l6 6zM5.573 28.427c0.049 0.049 0.113 0.073 0.177 0.073s0.128-0.024 0.176-0.073c0.098-0.098 0.098-0.256 0-0.354l-2-2c-0.098-0.098-0.256-0.098-0.353 0s-0.098 0.256 0 0.354l2 2zM7.573 28.427c0.049 0.049 0.113 0.073 0.177 0.073s0.128-0.024 0.176-0.073c0.097-0.098 0.097-0.256 0-0.354l-4-4c-0.098-0.098-0.256-0.098-0.353 0s-0.098 0.256 0 0.354l4 4zM23 15.5h5c0.276 0 0.5-0.223 0.5-0.5v-1c0-0.276-0.224-0.5-0.5-0.5h-5c-0.276 0-0.5 0.224-0.5 0.5v1c0 0.277 0.224 0.5 0.5 0.5v0zM26.5 8c-0.276 0-0.5-0.224-0.5-0.5s0.224-0.5 0.5-0.5c0.276 0 0.5 0.224 0.5 0.5s-0.224 0.5-0.5 0.5v0zM26.5 6.5c-0.552 0-1 0.448-1 1s0.448 1 1 1c0.552 0 1-0.447 1-1s-0.448-1-1-1v0zM21.5 6.5c-0.552 0-1 0.448-1 1s0.448 1 1 1c0.552 0 1-0.447 1-1s-0.448-1-1-1v0zM18.5 6.5c-0.552 0-1 0.448-1 1s0.448 1 1 1c0.552 0 1-0.447 1-1s-0.448-1-1-1v0zM15.5 6.5c-0.553 0-1 0.448-1 1s0.447 1 1 1c0.552 0 1-0.447 1-1s-0.448-1-1-1v0zM12.5 6.5c-0.553 0-1 0.448-1 1s0.447 1 1 1c0.552 0 1-0.447 1-1s-0.448-1-1-1v0zM8 6.5h1v2h-1v-2zM7.5 9h2v-3h-2v3zM5 6.5h1v2h-1v-2zM4.5 9h2v-3h-2v3zM29.5 10.5h-27v-5.5c0-0.276 0.224-0.5 0.5-0.5h26c0.276 0 0.5 0.224 0.5 0.5v5.5zM29 4h-26c-0.553 0-1 0.448-1 1v6h28v-6c0-0.552-0.448-1-1-1v0zM2.5 12.5h27v16.5c0 0.276-0.224 0.5-0.5 0.5h-26c-0.276 0-0.5-0.224-0.5-0.5v-16.5zM2 29c0 0.55 0.45 1 1 1h26c0.549 0 1-0.45 1-1v-17h-28v17zM31 29.5c0 0.828-0.673 1.5-1.5 1.5h-27c-0.828 0-1.5-0.672-1.5-1.5v-25c0-0.827 0.672-1.5 1.5-1.5h27c0.827 0 1.5 0.673 1.5 1.5v25zM16 1c1.573 0 3.109 0.423 4.495 1h-8.989c1.386-0.577 2.922-1 4.494-1v0zM29.5 2h-6.704c-2.063-1.119-4.365-2-6.796-2s-4.733 0.881-6.796 2h-6.704c-1.375 0-2.5 1.125-2.5 2.5v25c0 1.375 1.125 2.5 2.5 2.5h27c1.375 0 2.5-1.125 2.5-2.5v-25c0-1.375-1.125-2.5-2.5-2.5v0z"></path>
</symbol>
<symbol id="icon-drum" viewBox="0 0 32 32">
<path d="M15.353 15.646c-0.194-0.194-0.512-0.194-0.707 0s-0.194 0.513 0 0.707l0.354 0.354c0.194 0.195 0.512 0.195 0.707 0s0.194-0.512 0-0.707l-0.354-0.354zM13.5 19h-0.5c-0.275 0-0.5 0.225-0.5 0.5s0.225 0.5 0.5 0.5h0.5c0.275 0 0.5-0.225 0.5-0.5s-0.225-0.5-0.5-0.5v0zM26.647 19h-1.025c0.247-0.959 0.378-1.964 0.378-3 0-6.628-5.372-12-12-12s-12 5.372-12 12c0 6.628 5.372 12 12 12 3.389 0 6.447-1.407 8.629-3.665l0.703 0.703c-2.004 2.068-4.686 3.473-7.684 3.854-0.248 0.032-0.498 0.055-0.748 0.073-0.030 0.002-0.060 0.005-0.091 0.007-0.268 0.017-0.537 0.027-0.808 0.027s-0.54-0.010-0.807-0.027c-0.030-0.002-0.060-0.005-0.091-0.007-0.252-0.018-0.502-0.042-0.748-0.073-3.527-0.448-6.615-2.311-8.678-5.004-0.216-0.283-0.421-0.575-0.614-0.875-0.204-0.317-0.395-0.643-0.571-0.979-0.17-0.323-0.329-0.652-0.472-0.99-0.655-1.552-1.018-3.256-1.018-5.043s0.363-3.492 1.018-5.043c0.143-0.338 0.302-0.667 0.471-0.989 0.176-0.335 0.368-0.662 0.572-0.979 0.193-0.3 0.397-0.592 0.614-0.875 2.062-2.693 5.151-4.557 8.678-5.005 0.247-0.031 0.497-0.055 0.748-0.074 0.030-0.002 0.060-0.005 0.091-0.007 0.267-0.017 0.536-0.027 0.807-0.027s0.54 0.010 0.808 0.027c0.030 0.002 0.060 0.005 0.091 0.007 0.251 0.018 0.501 0.042 0.748 0.074 3.526 0.448 6.615 2.312 8.677 5.005 0.216 0.283 0.421 0.575 0.613 0.874 0.204 0.318 0.395 0.644 0.572 0.98 0.169 0.322 0.329 0.652 0.471 0.989 0.655 1.552 1.018 3.255 1.018 5.043 0 1.033-0.125 2.037-0.353 3v0zM27 23c0 0.552-0.448 1-1 1-0.158 0-0.305-0.040-0.439-0.105 0.373-0.546 0.709-1.12 1.003-1.718 0.262 0.18 0.435 0.482 0.435 0.824v0zM19.707 20h5.075c-0.439 1.18-1.067 2.268-1.846 3.229l-3.229-3.229zM16.413 18.121l0.88 0.879h-1.793c-0.275 0-0.5 0.225-0.5 0.5s0.225 0.5 0.5 0.5h2.793l3.978 3.978c-2.093 2.169-5.026 3.522-8.271 3.522-6.341 0-11.5-5.159-11.5-11.5s5.159-11.5 11.5-11.5 11.5 5.159 11.5 11.5c0 1.038-0.14 2.043-0.399 3h-6.393l-1.586-1.586c-0.195-0.195-0.513-0.195-0.707 0s-0.195 0.512 0 0.707v0zM24.938 23.012c-0.193 0.3-0.398 0.593-0.614 0.875-0.105 0.137-0.212 0.274-0.323 0.407l-0.706-0.706c0.866-1.060 1.553-2.271 2.019-3.588h1.053c-0.114 0.355-0.242 0.703-0.386 1.044-0.142 0.338-0.302 0.667-0.472 0.99-0.177 0.335-0.367 0.662-0.572 0.979v0zM14 31c-0.552 0-1-0.448-1-1 0-0.014 0.004-0.026 0.004-0.039 0.329 0.023 0.661 0.039 0.996 0.039s0.666-0.016 0.996-0.039c0.001 0.013 0.004 0.026 0.004 0.039 0 0.552-0.447 1-1 1v0zM2 24c-0.552 0-1-0.448-1-1 0-0.343 0.173-0.644 0.435-0.824 0.294 0.598 0.63 1.172 1.004 1.718-0.132 0.066-0.28 0.105-0.438 0.105v0zM1 9c0-0.552 0.448-1 1-1 0.158 0 0.306 0.040 0.438 0.105-0.373 0.546-0.709 1.12-1.004 1.719-0.262-0.181-0.435-0.482-0.435-0.825v0zM14 1c0.553 0 1 0.448 1 1 0 0.014-0.004 0.026-0.004 0.039-0.329-0.023-0.661-0.040-0.996-0.040s-0.666 0.016-0.996 0.040c-0.001-0.014-0.004-0.026-0.004-0.040 0-0.552 0.448-1 1-1v0zM26 8c0.552 0 1 0.448 1 1 0 0.342-0.172 0.644-0.435 0.825-0.294-0.598-0.63-1.172-1.003-1.719 0.133-0.066 0.28-0.106 0.439-0.106v0zM31.5 19h-3.825c0.211-0.966 0.326-1.97 0.326-3 0-1.862-0.366-3.637-1.026-5.263 0.61-0.342 1.026-0.988 1.026-1.737 0-1.104-0.895-2-2-2-0.382 0-0.736 0.109-1.038 0.297-2.175-2.736-5.349-4.638-8.973-5.154 0.003-0.048 0.011-0.095 0.011-0.143 0-1.105-0.896-2-2-2s-2 0.895-2 2c0 0.049 0.008 0.095 0.011 0.143-3.623 0.515-6.798 2.418-8.973 5.154-0.302-0.188-0.656-0.297-1.038-0.297-1.105 0-2 0.896-2 2 0 0.749 0.417 1.395 1.027 1.737-0.66 1.626-1.027 3.401-1.027 5.263s0.367 3.638 1.027 5.263c-0.61 0.343-1.027 0.988-1.027 1.737 0 1.105 0.895 2 2 2 0.382 0 0.736-0.11 1.038-0.297 2.175 2.735 5.349 4.638 8.973 5.154-0.004 0.048-0.011 0.095-0.011 0.143 0 1.105 0.896 2 2 2s2-0.895 2-2c0-0.049-0.008-0.095-0.011-0.143 3.141-0.447 5.945-1.936 8.053-4.108l3.685 3.685c0.195 0.195 0.512 0.195 0.707 0s0.195-0.512 0-0.707l-3.72-3.72c0.084-0.1 0.166-0.201 0.247-0.304 0.302 0.187 0.656 0.297 1.038 0.297 1.105 0 2-0.895 2-2 0-0.749-0.417-1.394-1.026-1.737 0.167-0.412 0.316-0.832 0.444-1.263h4.083c0.275 0 0.5-0.225 0.5-0.5s-0.225-0.5-0.5-0.5v0z"></path>
</symbol>
<symbol id="icon-microphone" viewBox="0 0 32 32">
<path d="M14.5 26h3c0.275 0 0.5-0.225 0.5-0.5s-0.225-0.5-0.5-0.5h-3c-0.275 0-0.5 0.225-0.5 0.5s0.225 0.5 0.5 0.5v0zM23.5 16c-0.276 0-0.5 0.224-0.5 0.5s0.224 0.5 0.5 0.5c0.276 0 0.5-0.224 0.5-0.5s-0.224-0.5-0.5-0.5v0zM20.5 16c-0.276 0-0.5 0.224-0.5 0.5s0.224 0.5 0.5 0.5c0.276 0 0.5-0.224 0.5-0.5s-0.224-0.5-0.5-0.5v0zM17.5 16c-0.276 0-0.5 0.224-0.5 0.5s0.224 0.5 0.5 0.5c0.276 0 0.5-0.224 0.5-0.5s-0.224-0.5-0.5-0.5v0zM14.5 16c-0.276 0-0.5 0.224-0.5 0.5s0.224 0.5 0.5 0.5c0.276 0 0.5-0.224 0.5-0.5s-0.224-0.5-0.5-0.5v0zM8.5 16c-0.276 0-0.5 0.224-0.5 0.5s0.224 0.5 0.5 0.5c0.276 0 0.5-0.224 0.5-0.5s-0.224-0.5-0.5-0.5v0zM11.5 16c-0.276 0-0.5 0.224-0.5 0.5s0.224 0.5 0.5 0.5c0.276 0 0.5-0.224 0.5-0.5s-0.224-0.5-0.5-0.5v0zM22 18c-0.276 0-0.5 0.224-0.5 0.5s0.224 0.5 0.5 0.5c0.276 0 0.5-0.224 0.5-0.5s-0.224-0.5-0.5-0.5v0zM19 18c-0.276 0-0.5 0.224-0.5 0.5s0.224 0.5 0.5 0.5c0.276 0 0.5-0.224 0.5-0.5s-0.224-0.5-0.5-0.5v0zM16 18c-0.276 0-0.5 0.224-0.5 0.5s0.224 0.5 0.5 0.5c0.276 0 0.5-0.224 0.5-0.5s-0.224-0.5-0.5-0.5v0zM13 18c-0.276 0-0.5 0.224-0.5 0.5s0.224 0.5 0.5 0.5c0.276 0 0.5-0.224 0.5-0.5s-0.224-0.5-0.5-0.5v0zM10 18c-0.276 0-0.5 0.224-0.5 0.5s0.224 0.5 0.5 0.5c0.276 0 0.5-0.224 0.5-0.5s-0.224-0.5-0.5-0.5v0zM22 14c-0.276 0-0.5 0.224-0.5 0.5s0.224 0.5 0.5 0.5c0.276 0 0.5-0.224 0.5-0.5s-0.224-0.5-0.5-0.5v0zM19 14c-0.276 0-0.5 0.224-0.5 0.5s0.224 0.5 0.5 0.5c0.276 0 0.5-0.224 0.5-0.5s-0.224-0.5-0.5-0.5v0zM16 14c-0.276 0-0.5 0.224-0.5 0.5s0.224 0.5 0.5 0.5c0.276 0 0.5-0.224 0.5-0.5s-0.224-0.5-0.5-0.5v0zM13 14c-0.276 0-0.5 0.224-0.5 0.5s0.224 0.5 0.5 0.5c0.276 0 0.5-0.224 0.5-0.5s-0.224-0.5-0.5-0.5v0zM10 14c-0.276 0-0.5 0.224-0.5 0.5s0.224 0.5 0.5 0.5c0.276 0 0.5-0.224 0.5-0.5s-0.224-0.5-0.5-0.5v0zM23.5 12c-0.276 0-0.5 0.224-0.5 0.5s0.224 0.5 0.5 0.5c0.276 0 0.5-0.224 0.5-0.5s-0.224-0.5-0.5-0.5v0zM20.5 12c-0.276 0-0.5 0.224-0.5 0.5s0.224 0.5 0.5 0.5c0.276 0 0.5-0.224 0.5-0.5s-0.224-0.5-0.5-0.5v0zM17.5 12c-0.276 0-0.5 0.224-0.5 0.5s0.224 0.5 0.5 0.5c0.276 0 0.5-0.224 0.5-0.5s-0.224-0.5-0.5-0.5v0zM14.5 12c-0.276 0-0.5 0.224-0.5 0.5s0.224 0.5 0.5 0.5c0.276 0 0.5-0.224 0.5-0.5s-0.224-0.5-0.5-0.5v0zM8.5 12c-0.276 0-0.5 0.224-0.5 0.5s0.224 0.5 0.5 0.5c0.276 0 0.5-0.224 0.5-0.5s-0.224-0.5-0.5-0.5v0zM11.5 12c-0.276 0-0.5 0.224-0.5 0.5s0.224 0.5 0.5 0.5c0.276 0 0.5-0.224 0.5-0.5s-0.224-0.5-0.5-0.5v0zM22 10c-0.276 0-0.5 0.224-0.5 0.5s0.224 0.5 0.5 0.5c0.276 0 0.5-0.224 0.5-0.5s-0.224-0.5-0.5-0.5v0zM19 10c-0.276 0-0.5 0.224-0.5 0.5s0.224 0.5 0.5 0.5c0.276 0 0.5-0.224 0.5-0.5s-0.224-0.5-0.5-0.5v0zM16 10c-0.276 0-0.5 0.224-0.5 0.5s0.224 0.5 0.5 0.5c0.276 0 0.5-0.224 0.5-0.5s-0.224-0.5-0.5-0.5v0zM13 10c-0.276 0-0.5 0.224-0.5 0.5s0.224 0.5 0.5 0.5c0.276 0 0.5-0.224 0.5-0.5s-0.224-0.5-0.5-0.5v0zM10 10c-0.276 0-0.5 0.224-0.5 0.5s0.224 0.5 0.5 0.5c0.276 0 0.5-0.224 0.5-0.5s-0.224-0.5-0.5-0.5v0zM23.5 8c-0.276 0-0.5 0.224-0.5 0.5s0.224 0.5 0.5 0.5c0.276 0 0.5-0.224 0.5-0.5s-0.224-0.5-0.5-0.5v0zM20.5 8c-0.276 0-0.5 0.224-0.5 0.5s0.224 0.5 0.5 0.5c0.276 0 0.5-0.224 0.5-0.5s-0.224-0.5-0.5-0.5v0zM17.5 8c-0.276 0-0.5 0.224-0.5 0.5s0.224 0.5 0.5 0.5c0.276 0 0.5-0.224 0.5-0.5s-0.224-0.5-0.5-0.5v0zM14.5 8c-0.276 0-0.5 0.224-0.5 0.5s0.224 0.5 0.5 0.5c0.276 0 0.5-0.224 0.5-0.5s-0.224-0.5-0.5-0.5v0zM8.5 8c-0.276 0-0.5 0.224-0.5 0.5s0.224 0.5 0.5 0.5c0.276 0 0.5-0.224 0.5-0.5s-0.224-0.5-0.5-0.5v0zM11.5 8c-0.276 0-0.5 0.224-0.5 0.5s0.224 0.5 0.5 0.5c0.276 0 0.5-0.224 0.5-0.5s-0.224-0.5-0.5-0.5v0zM22 6c-0.276 0-0.5 0.224-0.5 0.5s0.224 0.5 0.5 0.5c0.276 0 0.5-0.224 0.5-0.5s-0.224-0.5-0.5-0.5v0zM19 6c-0.276 0-0.5 0.224-0.5 0.5s0.224 0.5 0.5 0.5c0.276 0 0.5-0.224 0.5-0.5s-0.224-0.5-0.5-0.5v0zM16 6c-0.276 0-0.5 0.224-0.5 0.5s0.224 0.5 0.5 0.5c0.276 0 0.5-0.224 0.5-0.5s-0.224-0.5-0.5-0.5v0zM13 6c-0.276 0-0.5 0.224-0.5 0.5s0.224 0.5 0.5 0.5c0.276 0 0.5-0.224 0.5-0.5s-0.224-0.5-0.5-0.5v0zM10 6c-0.276 0-0.5 0.224-0.5 0.5s0.224 0.5 0.5 0.5c0.276 0 0.5-0.224 0.5-0.5s-0.224-0.5-0.5-0.5v0zM23.5 4c-0.276 0-0.5 0.224-0.5 0.5s0.224 0.5 0.5 0.5c0.276 0 0.5-0.224 0.5-0.5s-0.224-0.5-0.5-0.5v0zM20.5 4c-0.276 0-0.5 0.224-0.5 0.5s0.224 0.5 0.5 0.5c0.276 0 0.5-0.224 0.5-0.5s-0.224-0.5-0.5-0.5v0zM17.5 4c-0.276 0-0.5 0.224-0.5 0.5s0.224 0.5 0.5 0.5c0.276 0 0.5-0.224 0.5-0.5s-0.224-0.5-0.5-0.5v0zM14.5 4c-0.276 0-0.5 0.224-0.5 0.5s0.224 0.5 0.5 0.5c0.276 0 0.5-0.224 0.5-0.5s-0.224-0.5-0.5-0.5v0zM8.5 4c-0.276 0-0.5 0.224-0.5 0.5s0.224 0.5 0.5 0.5c0.276 0 0.5-0.224 0.5-0.5s-0.224-0.5-0.5-0.5v0zM11.5 4c-0.276 0-0.5 0.224-0.5 0.5s0.224 0.5 0.5 0.5c0.276 0 0.5-0.224 0.5-0.5s-0.224-0.5-0.5-0.5v0zM22 2c-0.276 0-0.5 0.224-0.5 0.5s0.224 0.5 0.5 0.5c0.276 0 0.5-0.224 0.5-0.5s-0.224-0.5-0.5-0.5v0zM19 2c-0.276 0-0.5 0.224-0.5 0.5s0.224 0.5 0.5 0.5c0.276 0 0.5-0.224 0.5-0.5s-0.224-0.5-0.5-0.5v0zM16 2c-0.276 0-0.5 0.224-0.5 0.5s0.224 0.5 0.5 0.5c0.276 0 0.5-0.224 0.5-0.5s-0.224-0.5-0.5-0.5v0zM13 2c-0.276 0-0.5 0.224-0.5 0.5s0.224 0.5 0.5 0.5c0.276 0 0.5-0.224 0.5-0.5s-0.224-0.5-0.5-0.5v0zM10 2c-0.276 0-0.5 0.224-0.5 0.5s0.224 0.5 0.5 0.5c0.276 0 0.5-0.224 0.5-0.5s-0.224-0.5-0.5-0.5v0zM26.5 23h-21v-2h21v2zM25.5 27h-19v-3h19v3zM6.5 3.5c0-1.378 1.122-2.5 2.5-2.5h14c1.378 0 2.5 1.122 2.5 2.5v16.5h-19v-16.5zM26.5 20v-16.5c0-1.933-1.567-3.5-3.5-3.5h-14c-1.933 0-3.5 1.567-3.5 3.5v16.5h-1v4h1v4l4 2v2h13v-2l4-2v-4h1v-4h-1z"></path>
</symbol>
<symbol id="icon-mixer" viewBox="0 0 32 32">
<path d="M31 29.5c0 0.827-0.673 1.5-1.5 1.5h-27c-0.827 0-1.5-0.673-1.5-1.5v-27c0-0.827 0.673-1.5 1.5-1.5h27c0.827 0 1.5 0.673 1.5 1.5v27zM29.5 0h-27c-1.381 0-2.5 1.119-2.5 2.5v27c0 1.381 1.119 2.5 2.5 2.5h27c1.381 0 2.5-1.119 2.5-2.5v-27c0-1.381-1.119-2.5-2.5-2.5v0zM18.5 7h4c0.275 0 0.5-0.225 0.5-0.5s-0.225-0.5-0.5-0.5h-4c-0.275 0-0.5 0.225-0.5 0.5s0.225 0.5 0.5 0.5v0zM25.5 6h-1c-0.275 0-0.5 0.225-0.5 0.5s0.225 0.5 0.5 0.5h1c0.275 0 0.5-0.225 0.5-0.5s-0.225-0.5-0.5-0.5v0zM27.5 7h1c0.275 0 0.5-0.225 0.5-0.5s-0.225-0.5-0.5-0.5h-1c-0.275 0-0.5 0.225-0.5 0.5s0.225 0.5 0.5 0.5v0zM8 6.5c0-0.275-0.225-0.5-0.5-0.5h-1c-0.275 0-0.5 0.225-0.5 0.5s0.225 0.5 0.5 0.5h1c0.275 0 0.5-0.225 0.5-0.5v0zM4.5 6h-1c-0.275 0-0.5 0.225-0.5 0.5s0.225 0.5 0.5 0.5h1c0.275 0 0.5-0.225 0.5-0.5s-0.225-0.5-0.5-0.5v0zM3.5 5h4c0.275 0 0.5-0.225 0.5-0.5v-1c0-0.275-0.225-0.5-0.5-0.5h-4c-0.275 0-0.5 0.225-0.5 0.5v1c0 0.275 0.225 0.5 0.5 0.5v0zM29 10c0 0.275-0.224 0.5-0.5 0.5s-0.5-0.225-0.5-0.5c0-0.275 0.224-0.5 0.5-0.5s0.5 0.225 0.5 0.5v0zM27.5 10c0 0.553 0.448 1 1 1s1-0.447 1-1c0-0.553-0.448-1-1-1s-1 0.447-1 1v0zM23.5 10.5c-0.276 0-0.5-0.225-0.5-0.5s0.224-0.5 0.5-0.5c0.276 0 0.5 0.225 0.5 0.5s-0.224 0.5-0.5 0.5v0zM23.5 9c-0.552 0-1 0.447-1 1s0.448 1 1 1c0.552 0 1-0.447 1-1s-0.448-1-1-1v0zM18.5 9.5c0.276 0 0.5 0.225 0.5 0.5s-0.224 0.5-0.5 0.5c-0.276 0-0.5-0.225-0.5-0.5s0.224-0.5 0.5-0.5v0zM18.5 11c0.552 0 1-0.447 1-1s-0.448-1-1-1c-0.552 0-1 0.447-1 1s0.448 1 1 1v0zM13.5 9.5c0.275 0 0.5 0.225 0.5 0.5s-0.225 0.5-0.5 0.5c-0.275 0-0.5-0.225-0.5-0.5s0.225-0.5 0.5-0.5v0zM13.5 11c0.553 0 1-0.447 1-1s-0.447-1-1-1c-0.553 0-1 0.447-1 1s0.447 1 1 1v0zM8.5 9.5c0.275 0 0.5 0.225 0.5 0.5s-0.225 0.5-0.5 0.5c-0.275 0-0.5-0.225-0.5-0.5s0.225-0.5 0.5-0.5v0zM7.5 10c0 0.553 0.447 1 1 1s1-0.447 1-1c0-0.553-0.447-1-1-1s-1 0.447-1 1v0zM3.5 9.5c0.276 0 0.5 0.225 0.5 0.5s-0.224 0.5-0.5 0.5c-0.276 0-0.5-0.225-0.5-0.5s0.224-0.5 0.5-0.5v0zM3.5 11c0.553 0 1-0.447 1-1s-0.447-1-1-1c-0.553 0-1 0.447-1 1s0.447 1 1 1v0zM28.5 13.5c-0.276 0-0.5-0.225-0.5-0.5s0.224-0.5 0.5-0.5c0.276 0 0.5 0.225 0.5 0.5s-0.224 0.5-0.5 0.5v0zM28.5 12c-0.552 0-1 0.447-1 1s0.448 1 1 1c0.552 0 1-0.447 1-1s-0.448-1-1-1v0zM23.5 13.5c-0.276 0-0.5-0.225-0.5-0.5s0.224-0.5 0.5-0.5c0.276 0 0.5 0.225 0.5 0.5s-0.224 0.5-0.5 0.5v0zM23.5 12c-0.552 0-1 0.447-1 1s0.448 1 1 1c0.552 0 1-0.447 1-1s-0.448-1-1-1v0zM18.5 12.5c0.276 0 0.5 0.225 0.5 0.5s-0.224 0.5-0.5 0.5c-0.276 0-0.5-0.225-0.5-0.5s0.224-0.5 0.5-0.5v0zM18.5 14c0.552 0 1-0.447 1-1s-0.448-1-1-1c-0.552 0-1 0.447-1 1s0.448 1 1 1v0zM13.5 12.5c0.275 0 0.5 0.225 0.5 0.5s-0.225 0.5-0.5 0.5c-0.275 0-0.5-0.225-0.5-0.5s0.225-0.5 0.5-0.5v0zM13.5 14c0.553 0 1-0.447 1-1s-0.447-1-1-1c-0.553 0-1 0.447-1 1s0.447 1 1 1v0zM8.5 13.5c-0.275 0-0.5-0.225-0.5-0.5s0.225-0.5 0.5-0.5c0.275 0 0.5 0.225 0.5 0.5s-0.225 0.5-0.5 0.5v0zM8.5 12c-0.553 0-1 0.447-1 1s0.447 1 1 1c0.553 0 1-0.447 1-1s-0.447-1-1-1v0zM3.5 12.5c0.276 0 0.5 0.225 0.5 0.5s-0.224 0.5-0.5 0.5c-0.276 0-0.5-0.225-0.5-0.5s0.224-0.5 0.5-0.5v0zM3.5 14c0.553 0 1-0.447 1-1s-0.447-1-1-1c-0.553 0-1 0.447-1 1s0.447 1 1 1v0zM25 3c-0.552 0-1 0.447-1 1s0.448 1 1 1c0.552 0 1-0.447 1-1s-0.448-1-1-1v0zM28 5c0.552 0 1-0.447 1-1s-0.448-1-1-1c-0.552 0-1 0.447-1 1s0.448 1 1 1v0zM3.5 20c0.553 0 1-0.448 1-1s-0.447-1-1-1c-0.553 0-1 0.448-1 1s0.447 1 1 1v0zM3.5 17c0.553 0 1-0.448 1-1s-0.447-1-1-1c-0.553 0-1 0.447-1 1s0.447 1 1 1v0zM8.5 18c-0.553 0-1 0.448-1 1s0.447 1 1 1c0.553 0 1-0.448 1-1s-0.447-1-1-1v0zM8.5 15c-0.553 0-1 0.447-1 1s0.447 1 1 1c0.553 0 1-0.448 1-1s-0.447-1-1-1v0zM13.5 20c0.553 0 1-0.448 1-1s-0.447-1-1-1c-0.553 0-1 0.448-1 1s0.447 1 1 1v0zM13.5 17c0.553 0 1-0.448 1-1s-0.447-1-1-1c-0.553 0-1 0.447-1 1s0.447 1 1 1v0zM18.5 20c0.552 0 1-0.448 1-1s-0.448-1-1-1c-0.552 0-1 0.448-1 1s0.448 1 1 1v0zM18.5 17c0.552 0 1-0.448 1-1s-0.448-1-1-1c-0.552 0-1 0.447-1 1s0.448 1 1 1v0zM23.5 18c-0.552 0-1 0.448-1 1s0.448 1 1 1c0.552 0 1-0.448 1-1s-0.448-1-1-1v0zM23.5 15c-0.552 0-1 0.447-1 1s0.448 1 1 1c0.552 0 1-0.448 1-1s-0.448-1-1-1v0zM28.5 18c-0.552 0-1 0.448-1 1s0.448 1 1 1c0.552 0 1-0.448 1-1s-0.448-1-1-1v0zM28.5 15c-0.552 0-1 0.447-1 1s0.448 1 1 1c0.552 0 1-0.448 1-1s-0.448-1-1-1v0zM18.5 4.5c0.276 0 0.5-0.224 0.5-0.5s-0.224-0.5-0.5-0.5c-0.276 0-0.5 0.224-0.5 0.5s0.224 0.5 0.5 0.5v0zM20.5 4.5c0.276 0 0.5-0.224 0.5-0.5s-0.224-0.5-0.5-0.5c-0.276 0-0.5 0.224-0.5 0.5s0.224 0.5 0.5 0.5v0zM22.5 4.5c0.276 0 0.5-0.224 0.5-0.5s-0.224-0.5-0.5-0.5c-0.276 0-0.5 0.224-0.5 0.5s0.224 0.5 0.5 0.5v0zM29.5 25h-0.5v-2.5c0-0.276-0.224-0.5-0.5-0.5s-0.5 0.224-0.5 0.5v2.5h-0.5c-0.275 0-0.5 0.225-0.5 0.5s0.225 0.5 0.5 0.5h0.5v2.5c0 0.276 0.224 0.5 0.5 0.5s0.5-0.224 0.5-0.5v-2.5h0.5c0.275 0 0.5-0.225 0.5-0.5s-0.225-0.5-0.5-0.5v0zM24.5 24h-0.5v-1.5c0-0.276-0.224-0.5-0.5-0.5s-0.5 0.224-0.5 0.5v1.5h-0.5c-0.275 0-0.5 0.225-0.5 0.5s0.225 0.5 0.5 0.5h0.5v3.5c0 0.276 0.224 0.5 0.5 0.5s0.5-0.224 0.5-0.5v-3.5h0.5c0.275 0 0.5-0.225 0.5-0.5s-0.225-0.5-0.5-0.5v0zM19.5 23h-0.5v-0.5c0-0.276-0.224-0.5-0.5-0.5s-0.5 0.224-0.5 0.5v0.5h-0.5c-0.275 0-0.5 0.225-0.5 0.5s0.225 0.5 0.5 0.5h0.5v4.5c0 0.276 0.224 0.5 0.5 0.5s0.5-0.224 0.5-0.5v-4.5h0.5c0.275 0 0.5-0.225 0.5-0.5s-0.225-0.5-0.5-0.5v0zM14.5 25h-0.5v-2.5c0-0.276-0.224-0.5-0.5-0.5s-0.5 0.224-0.5 0.5v2.5h-0.5c-0.275 0-0.5 0.225-0.5 0.5s0.225 0.5 0.5 0.5h0.5v2.5c0 0.276 0.224 0.5 0.5 0.5s0.5-0.224 0.5-0.5v-2.5h0.5c0.275 0 0.5-0.225 0.5-0.5s-0.225-0.5-0.5-0.5v0zM9.5 26h-0.5v-3.5c0-0.276-0.224-0.5-0.5-0.5s-0.5 0.224-0.5 0.5v3.5h-0.5c-0.275 0-0.5 0.225-0.5 0.5s0.225 0.5 0.5 0.5h0.5v1.5c0 0.276 0.224 0.5 0.5 0.5s0.5-0.224 0.5-0.5v-1.5h0.5c0.275 0 0.5-0.225 0.5-0.5s-0.225-0.5-0.5-0.5v0zM4.5 24h-0.5v-1.5c0-0.276-0.224-0.5-0.5-0.5s-0.5 0.224-0.5 0.5v1.5h-0.5c-0.275 0-0.5 0.225-0.5 0.5s0.225 0.5 0.5 0.5h0.5v3.5c0 0.276 0.224 0.5 0.5 0.5s0.5-0.224 0.5-0.5v-3.5h0.5c0.275 0 0.5-0.225 0.5-0.5s-0.225-0.5-0.5-0.5v0z"></path>
</symbol>
<symbol id="icon-piano" viewBox="0 0 32 32">
<path d="M31 29.5c0 0.827-0.673 1.5-1.5 1.5h-2.5v-12h1c0.275 0 0.5-0.225 0.5-0.5v-17.5h1c0.827 0 1.5 0.673 1.5 1.5v27zM1 29.5v-27c0-0.827 0.673-1.5 1.5-1.5h3v17.5c0 0.275 0.225 0.5 0.5 0.5h1v12h-4.5c-0.827 0-1.5-0.673-1.5-1.5v0zM12 1v17.5c0 0.275 0.225 0.5 0.5 0.5h1v12h-6v-12h1c0.275 0 0.5-0.225 0.5-0.5v-17.5h3zM20 1v30h-6v-12h1c0.275 0 0.5-0.225 0.5-0.5v-17.5h4.5zM25.5 19h1v12h-6v-30h4.5v17.5c0 0.275 0.225 0.5 0.5 0.5v0zM29.5 0h-27c-1.381 0-2.5 1.119-2.5 2.5v27c0 1.381 1.119 2.5 2.5 2.5h27c1.381 0 2.5-1.119 2.5-2.5v-27c0-1.381-1.119-2.5-2.5-2.5v0z"></path>
</symbol>
<symbol id="icon-radio" viewBox="0 0 32 32">
<path d="M15 21c0.276 0 0.5-0.224 0.5-0.5s-0.224-0.5-0.5-0.5c-0.276 0-0.5 0.224-0.5 0.5s0.224 0.5 0.5 0.5v0zM17 21c0.276 0 0.5-0.224 0.5-0.5s-0.224-0.5-0.5-0.5c-0.276 0-0.5 0.224-0.5 0.5s0.224 0.5 0.5 0.5v0zM8.5 9.5h-5c-0.275 0-0.5 0.225-0.5 0.5v1.5c0 0.275 0.225 0.5 0.5 0.5h5c0.275 0 0.5-0.225 0.5-0.5v-1.5c0-0.275-0.225-0.5-0.5-0.5v0zM18.5 9.5c-0.276 0-0.5 0.224-0.5 0.5s0.224 0.5 0.5 0.5c0.276 0 0.5-0.224 0.5-0.5s-0.224-0.5-0.5-0.5v0zM20.5 9.5c-0.276 0-0.5 0.224-0.5 0.5s0.224 0.5 0.5 0.5c0.276 0 0.5-0.224 0.5-0.5s-0.224-0.5-0.5-0.5v0zM22.5 9.5c-0.276 0-0.5 0.224-0.5 0.5s0.224 0.5 0.5 0.5c0.276 0 0.5-0.224 0.5-0.5s-0.224-0.5-0.5-0.5v0zM25 9.5c-0.552 0-1 0.447-1 1s0.448 1 1 1c0.552 0 1-0.447 1-1s-0.448-1-1-1v0zM28 9.5c-0.552 0-1 0.447-1 1s0.448 1 1 1c0.552 0 1-0.447 1-1s-0.448-1-1-1v0zM13.5 19.5c0-0.275 0.225-0.5 0.5-0.5h4c0.275 0 0.5 0.225 0.5 0.5v2c0 0.275-0.225 0.5-0.5 0.5h-4c-0.275 0-0.5-0.225-0.5-0.5v-2zM14 22.5h4c0.552 0 1-0.448 1-1v-2c0-0.552-0.448-1-1-1h-4c-0.552 0-1 0.448-1 1v2c0 0.552 0.448 1 1 1v0zM24.5 17c1.93 0 3.5 1.57 3.5 3.5s-1.57 3.5-3.5 3.5c-1.93 0-3.5-1.57-3.5-3.5s1.57-3.5 3.5-3.5v0zM24.5 25c2.486 0 4.5-2.014 4.5-4.5s-2.014-4.5-4.5-4.5c-2.486 0-4.5 2.014-4.5 4.5s2.014 4.5 4.5 4.5v0zM7.5 17c1.93 0 3.5 1.57 3.5 3.5s-1.57 3.5-3.5 3.5c-1.93 0-3.5-1.57-3.5-3.5s1.57-3.5 3.5-3.5v0zM7.5 25c2.486 0 4.5-2.014 4.5-4.5s-2.014-4.5-4.5-4.5c-2.486 0-4.5 2.014-4.5 4.5s2.014 4.5 4.5 4.5v0zM31 13.5h-30v-4c0-0.827 0.673-1.5 1.5-1.5h27c0.827 0 1.5 0.673 1.5 1.5v4zM31 25.5c0 0.827-0.673 1.5-1.5 1.5h-27c-0.827 0-1.5-0.673-1.5-1.5v-11.5h30v11.5zM5.5 5.5c0-0.276 0.224-0.5 0.5-0.5h20c0.276 0 0.5 0.224 0.5 0.5v1.5h-21v-1.5zM29.5 7h-2v-2c0-0.55-0.45-1-1-1h-21c-0.55 0-1 0.45-1 1v2h-2c-1.375 0-2.5 1.125-2.5 2.5v16c0 1.375 1.125 2.5 2.5 2.5h27c1.375 0 2.5-1.125 2.5-2.5v-16c0-1.375-1.125-2.5-2.5-2.5v0z"></path>
</symbol>
<symbol id="icon-speaker" viewBox="0 0 32 32">
<path d="M23 3c-0.276 0-0.5 0.224-0.5 0.5s0.224 0.5 0.5 0.5c0.276 0 0.5-0.224 0.5-0.5s-0.224-0.5-0.5-0.5v0zM23.25 29.5h-14.5c-0.138 0-0.25 0.112-0.25 0.25s0.112 0.25 0.25 0.25h14.5c0.138 0 0.25-0.112 0.25-0.25s-0.112-0.25-0.25-0.25v0zM16 23c-1.379 0-2.5-1.122-2.5-2.5s1.121-2.5 2.5-2.5c1.378 0 2.5 1.122 2.5 2.5s-1.122 2.5-2.5 2.5v0zM16 17.5c-1.657 0-3 1.343-3 3s1.343 3 3 3c1.657 0 3-1.343 3-3s-1.343-3-3-3v0zM16 6.5c0.552 0 1 0.449 1 1s-0.448 1-1 1c-0.552 0-1-0.448-1-1s0.448-1 1-1v0zM16 9c0.828 0 1.5-0.671 1.5-1.5s-0.672-1.5-1.5-1.5c-0.829 0-1.5 0.671-1.5 1.5s0.671 1.5 1.5 1.5v0zM16 27c-3.584 0-6.5-2.916-6.5-6.5s2.916-6.5 6.5-6.5c3.584 0 6.5 2.916 6.5 6.5s-2.916 6.5-6.5 6.5v0zM16 13c-4.142 0-7.5 3.358-7.5 7.5s3.358 7.5 7.5 7.5c4.142 0 7.5-3.358 7.5-7.5s-3.358-7.5-7.5-7.5v0zM16 4c1.93 0 3.5 1.57 3.5 3.5s-1.57 3.5-3.5 3.5c-1.93 0-3.5-1.57-3.5-3.5s1.57-3.5 3.5-3.5v0zM16 12c2.486 0 4.5-2.014 4.5-4.5s-2.014-4.5-4.5-4.5c-2.486 0-4.5 2.014-4.5 4.5s2.014 4.5 4.5 4.5v0zM25.5 29.5c0 0.827-0.673 1.5-1.5 1.5h-16c-0.827 0-1.5-0.673-1.5-1.5v-27c0-0.827 0.673-1.5 1.5-1.5h16c0.827 0 1.5 0.673 1.5 1.5v27zM24 0h-16c-1.375 0-2.5 1.125-2.5 2.5v27c0 1.375 1.125 2.5 2.5 2.5h16c1.375 0 2.5-1.125 2.5-2.5v-27c0-1.375-1.125-2.5-2.5-2.5v0z"></path>
</symbol>
<symbol id="icon-vinyl" viewBox="0 0 32 32">
<path d="M12.495 27.218c-3.681-1.148-6.564-4.032-7.713-7.713-0.041-0.131-0.179-0.206-0.314-0.164-0.131 0.041-0.205 0.181-0.164 0.314 1.198 3.837 4.203 6.843 8.040 8.040 0.025 0.008 0.050 0.012 0.075 0.012 0.106 0 0.205-0.069 0.239-0.175 0.041-0.132-0.033-0.272-0.164-0.314zM12.943 25.786c-3.211-1.002-5.726-3.517-6.729-6.728-0.041-0.131-0.18-0.206-0.314-0.164-0.131 0.041-0.205 0.181-0.164 0.314 1.051 3.367 3.689 6.005 7.056 7.056 0.024 0.008 0.050 0.011 0.075 0.011 0.107 0 0.205-0.068 0.239-0.175 0.041-0.132-0.033-0.272-0.164-0.314zM12.047 28.65c-4.149-1.296-7.401-4.546-8.697-8.697-0.042-0.131-0.179-0.206-0.313-0.164-0.132 0.041-0.205 0.181-0.164 0.314 1.345 4.306 4.718 7.68 9.025 9.024 0.024 0.008 0.050 0.012 0.075 0.012 0.107 0 0.205-0.069 0.239-0.175 0.041-0.131-0.033-0.272-0.165-0.314zM19.655 4.305c-0.133-0.042-0.272 0.033-0.314 0.164-0.041 0.132 0.033 0.272 0.164 0.313 3.681 1.149 6.564 4.032 7.712 7.713 0.034 0.107 0.133 0.175 0.239 0.175 0.024 0 0.049-0.004 0.075-0.011 0.131-0.041 0.205-0.181 0.164-0.313-1.198-3.837-4.204-6.843-8.040-8.040zM19.208 5.737c-0.134-0.043-0.272 0.032-0.314 0.164s0.032 0.272 0.164 0.313c3.21 1.002 5.725 3.517 6.727 6.727 0.034 0.107 0.133 0.175 0.239 0.175 0.024 0 0.049-0.004 0.075-0.011 0.132-0.041 0.205-0.181 0.164-0.313-1.051-3.367-3.689-6.005-7.056-7.056zM29.128 11.898c-1.345-4.306-4.718-7.681-9.025-9.025-0.134-0.042-0.272 0.033-0.314 0.164s0.032 0.272 0.164 0.313c4.151 1.296 7.402 4.547 8.697 8.697 0.034 0.107 0.132 0.175 0.238 0.175 0.024 0 0.050-0.004 0.075-0.011 0.131-0.041 0.205-0.181 0.164-0.313zM16 16.5c-0.276 0-0.5-0.224-0.5-0.5s0.224-0.5 0.5-0.5c0.276 0 0.5 0.225 0.5 0.5s-0.224 0.5-0.5 0.5zM16 15c-0.553 0-1 0.448-1 1s0.447 1 1 1c0.552 0 1-0.448 1-1s-0.448-1-1-1zM16 20.5c-2.482 0-4.5-2.018-4.5-4.5s2.018-4.5 4.5-4.5c2.481 0 4.5 2.019 4.5 4.5s-2.019 4.5-4.5 4.5zM16 10.5c-3.037 0-5.5 2.463-5.5 5.5s2.463 5.5 5.5 5.5 5.5-2.462 5.5-5.5c0-3.037-2.462-5.5-5.5-5.5zM16 31c-8.271 0-15-6.729-15-15s6.729-15 15-15 15 6.729 15 15c0 8.271-6.729 15-15 15zM16-0c-8.836 0-16 7.163-16 16s7.163 16 16 16 16-7.163 16-16c0-8.836-7.163-16-16-16z"></path>
</symbol>
<symbol id="icon-vinyl-color" viewBox="0 0 32 32">
<path fill="#242424" style="fill: var(--color1, #242424)" d="M32 16c0 8.837-7.163 16-16 16s-16-7.163-16-16c0-8.837 7.163-16 16-16s16 7.163 16 16z"></path>
<path fill="#0f161a" style="fill: var(--color2, #0f161a)" d="M16 31.6c-8.602 0-15.6-6.998-15.6-15.6s6.998-15.6 15.6-15.6 15.6 6.998 15.6 15.6-6.998 15.6-15.6 15.6z"></path>
<path fill="#588199" style="fill: var(--color3, #588199)" opacity="0.2" d="M4.974 4.974c-2.825 2.825-4.574 6.725-4.574 11.026s1.75 8.201 4.574 11.026l11.026-11.026-11.026-11.026z"></path>
<path fill="#588199" style="fill: var(--color3, #588199)" opacity="0.2" d="M31.6 16c0-4.301-1.75-8.201-4.574-11.026l-11.026 11.026 11.026 11.026c2.825-2.825 4.574-6.725 4.574-11.026z"></path>
<path fill="#66401e" style="fill: var(--color4, #66401e)" d="M16 22c-3.309 0-6-2.692-6-6s2.691-6 6-6 6 2.691 6 6-2.692 6-6 6z"></path>
<path fill="#ffeacc" style="fill: var(--color5, #ffeacc)" d="M16 21.2c-2.867 0-5.2-2.333-5.2-5.2s2.332-5.2 5.2-5.2c2.868 0 5.2 2.333 5.2 5.2s-2.332 5.2-5.2 5.2z"></path>
<path fill="#242424" style="fill: var(--color1, #242424)" d="M16.4 16c0 0.221-0.179 0.4-0.4 0.4s-0.4-0.179-0.4-0.4c0-0.221 0.179-0.4 0.4-0.4s0.4 0.179 0.4 0.4z"></path>
</symbol>
</defs>
</svg>
